# xmcd
#
# Track frame offsets:
#	150
#	12117
#	20546
#	35342
#	44090
#	55903
#	65302
#	76642
#	88752
#	98907
#	112551
#	122336
#
# Disc length: 1816 seconds
#
# Revision: 1
# Processed by: cddbd v1.5.2PL0 Copyright (c) Steve Scherf et al.
# Submitted via: EasyCDDAExtractor 10.2.0.1
#
DISCID=8407160c
DTITLE=Trio da Alegria - Homenagem ao Espírito Santo
DYEAR=1900
DGENRE=Sertanejo
TTITLE0=Homenagem ao Espírito Santo
TTITLE1=Falsa assinatura
TTITLE2=História do menino da porteira
TTITLE3=Meu regresso
TTITLE4=Nem tudo no mundo é belo
TTITLE5=Entre nós não pode haver adeus
TTITLE6=Quebra tudo
TTITLE7=Boiadeiro misterioso
TTITLE8=Realidade
TTITLE9=Ainda resta esperança
TTITLE10=Carteiro inimigo
TTITLE11=Gente de minha vila
EXTD=
EXTT0=
EXTT1=
EXTT2=
EXTT3=
EXTT4=
EXTT5=
EXTT6=
EXTT7=
EXTT8=
EXTT9=
EXTT10=
EXTT11=
PLAYORDER=
